<svg width="1000" height="1157" viewBox="0 0 1000 1157" fill="none" xmlns="http://www.w3.org/2000/svg">
<path d="M884.44 499.248C884.44 278.225 712.45 106.008 491.5 105.748L491.5 92.748C711.919 93.0286 897.56 278.777 897.56 499.248C897.56 719.719 711.919 905.467 491.5 905.748V892.748C710.121 892.48 880.703 717.036 884.44 499.256V499.248Z" fill="#6974DB" stroke="black"/>
<path d="M134.5 501.982C138.569 697.208 294.09 846.152 489.82 842.331L490.057 853.696C294.854 857.485 127.049 696.893 122.992 502.221C118.935 307.55 279.903 140.106 475.095 135.759L475.331 147.124C281.674 151.426 133.802 309.545 134.5 501.973L134.5 501.982Z" fill="#6974DB" stroke="black"/>
<path d="M502 933.138C746.363 933.138 936.761 743.001 937.021 498.748L951.5 498.748C951.219 742.47 745.811 947.748 502 947.748C258.189 947.748 52.781 742.47 52.5004 498.748H66.9795C67.2467 740.426 261.214 929.007 501.991 933.138H502Z" fill="#6974DB" stroke="black"/>
<path d="M502 63.3574C257.637 63.3574 67.239 253.494 66.9795 497.748L52.5003 497.748C52.7809 254.025 258.189 48.7478 502 48.7478C745.811 48.7478 951.219 254.025 951.5 497.748H937.021C936.753 256.07 742.786 67.4886 502.009 63.3574H502Z" fill="#6974DB" stroke="black"/>
<path d="M298.6 350.048H340.6C349.667 350.048 355.533 351.514 358.2 354.448C361.133 357.381 362.6 363.514 362.6 372.848V616.448C362.6 625.781 361.133 631.914 358.2 634.848C355.533 637.781 349.667 639.248 340.6 639.248H298.6V350.048ZM214.2 550.048H264.6C268.333 550.048 270.6 550.581 271.4 551.648C272.2 552.714 272.6 554.981 272.6 558.448V589.648C272.6 593.914 273.133 596.981 274.2 598.848C275.533 600.448 278.6 601.248 283.4 601.248H286.6V639.248H267.8C248.333 639.248 233.533 635.914 223.4 629.248C213.533 622.581 208.6 610.981 208.6 594.448V558.448C208.6 552.848 210.467 550.048 214.2 550.048Z" fill="#6974DB"/>
<path d="M298.6 350.048V349.048H297.6V350.048H298.6ZM358.2 354.448L357.46 355.12L357.476 355.138L357.493 355.155L358.2 354.448ZM358.2 634.848L357.493 634.141L357.476 634.158L357.46 634.175L358.2 634.848ZM298.6 639.248H297.6V640.248H298.6V639.248ZM271.4 551.648L272.2 551.048L272.2 551.048L271.4 551.648ZM274.2 598.848L273.332 599.344L273.375 599.42L273.432 599.488L274.2 598.848ZM286.6 601.248H287.6V600.248H286.6V601.248ZM286.6 639.248V640.248H287.6V639.248H286.6ZM223.4 629.248L222.84 630.076L222.85 630.083L223.4 629.248ZM298.6 351.048H340.6V349.048H298.6V351.048ZM340.6 351.048C345.088 351.048 348.732 351.412 351.557 352.118C354.393 352.827 356.312 353.858 357.46 355.12L358.94 353.775C357.421 352.104 355.074 350.935 352.043 350.178C349.001 349.417 345.179 349.048 340.6 349.048V351.048ZM357.493 355.155C358.778 356.44 359.816 358.507 360.527 361.48C361.236 364.444 361.6 368.226 361.6 372.848H363.6C363.6 368.136 363.231 364.185 362.473 361.015C361.717 357.855 360.556 355.389 358.907 353.741L357.493 355.155ZM361.6 372.848V616.448H363.6V372.848H361.6ZM361.6 616.448C361.6 621.07 361.236 624.852 360.527 627.815C359.816 630.789 358.778 632.856 357.493 634.141L358.907 635.555C360.556 633.906 361.717 631.44 362.473 628.28C363.231 625.111 363.6 621.159 363.6 616.448H361.6ZM357.46 634.175C356.312 635.438 354.393 636.469 351.557 637.178C348.732 637.884 345.088 638.248 340.6 638.248V640.248C345.179 640.248 349.001 639.878 352.043 639.118C355.074 638.36 357.421 637.191 358.94 635.52L357.46 634.175ZM340.6 638.248H298.6V640.248H340.6V638.248ZM299.6 639.248V350.048H297.6V639.248H299.6ZM214.2 551.048H264.6V549.048H214.2V551.048ZM264.6 551.048C266.43 551.048 267.844 551.18 268.871 551.421C269.93 551.67 270.413 551.998 270.6 552.248L272.2 551.048C271.587 550.231 270.537 549.759 269.329 549.474C268.09 549.183 266.504 549.048 264.6 549.048V551.048ZM270.6 552.248C270.861 552.595 271.125 553.246 271.315 554.322C271.501 555.377 271.6 556.747 271.6 558.448H273.6C273.6 556.682 273.499 555.186 273.285 553.974C273.075 552.783 272.739 551.767 272.2 551.048L270.6 552.248ZM271.6 558.448V589.648H273.6V558.448H271.6ZM271.6 589.648C271.6 593.948 272.129 597.239 273.332 599.344L275.068 598.352C274.138 596.723 273.6 593.881 273.6 589.648H271.6ZM273.432 599.488C274.285 600.512 275.611 601.189 277.248 601.615C278.894 602.045 280.954 602.248 283.4 602.248V600.248C281.046 600.248 279.173 600.051 277.752 599.68C276.322 599.307 275.448 598.783 274.968 598.208L273.432 599.488ZM283.4 602.248H286.6V600.248H283.4V602.248ZM285.6 601.248V639.248H287.6V601.248H285.6ZM286.6 638.248H267.8V640.248H286.6V638.248ZM267.8 638.248C248.421 638.248 233.848 634.925 223.95 628.412L222.85 630.083C233.218 636.904 248.246 640.248 267.8 640.248V638.248ZM223.96 628.419C214.467 622.005 209.6 610.789 209.6 594.448H207.6C207.6 611.173 212.599 623.157 222.84 630.076L223.96 628.419ZM209.6 594.448V558.448H207.6V594.448H209.6ZM209.6 558.448C209.6 555.727 210.059 553.862 210.832 552.703C211.557 551.615 212.625 551.048 214.2 551.048V549.048C212.042 549.048 210.309 549.881 209.168 551.593C208.074 553.234 207.6 555.568 207.6 558.448H209.6Z" fill="black"/>
<path d="M769 552.048H825C827.933 552.048 829.4 553.914 829.4 557.648V628.048C829.4 635.514 825.667 639.248 818.2 639.248H721.4V601.248H758.6C762.867 601.248 765 600.848 765 600.048C765.267 598.981 765.4 597.781 765.4 596.448V556.448C765.4 554.314 765.667 553.114 766.2 552.848C766.733 552.314 767.667 552.048 769 552.048ZM707.4 639.248H665.4C656.333 639.248 650.333 637.781 647.4 634.848C644.733 631.914 643.4 625.781 643.4 616.448V372.848C643.4 363.514 644.733 357.381 647.4 354.448C650.333 351.514 656.333 350.048 665.4 350.048H707.4V639.248Z" fill="#6974DB"/>
<path d="M721.4 639.248H720.4V640.248H721.4V639.248ZM721.4 601.248V600.248H720.4V601.248H721.4ZM765 600.048L764.03 599.805L764 599.925V600.048H765ZM766.2 552.848L766.647 553.742L766.792 553.67L766.907 553.555L766.2 552.848ZM707.4 639.248V640.248H708.4V639.248H707.4ZM647.4 634.848L646.66 635.52L646.676 635.538L646.693 635.555L647.4 634.848ZM647.4 354.448L646.693 353.741L646.676 353.758L646.66 353.775L647.4 354.448ZM707.4 350.048H708.4V349.048H707.4V350.048ZM769 553.048H825V551.048H769V553.048ZM825 553.048C826.24 553.048 827.014 553.43 827.514 554.066C828.049 554.747 828.4 555.885 828.4 557.648H830.4C830.4 555.677 830.018 554.015 829.086 552.83C828.119 551.599 826.694 551.048 825 551.048V553.048ZM828.4 557.648V628.048H830.4V557.648H828.4ZM828.4 628.048C828.4 631.627 827.506 634.128 825.893 635.741C824.28 637.354 821.779 638.248 818.2 638.248V640.248C822.087 640.248 825.187 639.275 827.307 637.155C829.427 635.035 830.4 631.935 830.4 628.048H828.4ZM818.2 638.248H721.4V640.248H818.2V638.248ZM722.4 639.248V601.248H720.4V639.248H722.4ZM721.4 602.248H758.6V600.248H721.4V602.248ZM758.6 602.248C760.748 602.248 762.424 602.148 763.584 601.931C764.155 601.824 764.682 601.674 765.09 601.444C765.491 601.219 766 600.777 766 600.048H764C764 599.718 764.242 599.627 764.11 599.701C763.985 599.771 763.711 599.872 763.216 599.965C762.243 600.147 760.719 600.248 758.6 600.248V602.248ZM765.97 600.29C766.26 599.13 766.4 597.846 766.4 596.448H764.4C764.4 597.716 764.273 598.833 764.03 599.805L765.97 600.29ZM766.4 596.448V556.448H764.4V596.448H766.4ZM766.4 556.448C766.4 555.409 766.466 554.66 766.576 554.165C766.631 553.917 766.688 553.774 766.728 553.702C766.768 553.628 766.756 553.688 766.647 553.742L765.753 551.953C765.377 552.141 765.132 552.451 764.972 552.744C764.812 553.038 764.702 553.378 764.624 553.731C764.467 554.436 764.4 555.353 764.4 556.448H766.4ZM766.907 553.555C767.153 553.309 767.744 553.048 769 553.048V551.048C767.589 551.048 766.314 551.319 765.493 552.141L766.907 553.555ZM707.4 638.248H665.4V640.248H707.4V638.248ZM665.4 638.248C660.913 638.248 657.233 637.884 654.337 637.176C651.434 636.467 649.396 635.429 648.107 634.141L646.693 635.555C648.337 637.199 650.766 638.362 653.863 639.119C656.967 639.878 660.82 640.248 665.4 640.248V638.248ZM648.14 634.175C646.974 632.893 646.026 630.821 645.377 627.835C644.731 624.863 644.4 621.074 644.4 616.448H642.4C642.4 621.155 642.736 625.099 643.423 628.26C644.107 631.408 645.159 633.869 646.66 635.52L648.14 634.175ZM644.4 616.448V372.848H642.4V616.448H644.4ZM644.4 372.848C644.4 368.222 644.731 364.432 645.377 361.46C646.026 358.474 646.974 356.402 648.14 355.12L646.66 353.775C645.159 355.426 644.107 357.888 643.423 361.035C642.736 364.197 642.4 368.141 642.4 372.848H644.4ZM648.107 355.155C649.396 353.866 651.434 352.829 654.337 352.119C657.233 351.411 660.913 351.048 665.4 351.048V349.048C660.82 349.048 656.967 349.417 653.863 350.176C650.766 350.933 648.337 352.096 646.693 353.741L648.107 355.155ZM665.4 351.048H707.4V349.048H665.4V351.048ZM706.4 350.048V639.248H708.4V350.048H706.4Z" fill="black"/>
<path d="M513.718 494.398L460.868 549.698C454.101 556.931 447.568 562.181 441.268 565.448C434.968 568.481 429.134 569.998 423.768 569.998C417.934 569.998 412.568 568.481 407.668 565.448C402.768 562.414 398.218 558.331 394.018 553.198L454.218 494.748L394.718 436.998C404.751 425.564 414.784 419.848 424.818 419.848C436.018 419.848 448.268 426.731 461.568 440.498L513.718 494.398ZM545.215 565.798C545.215 558.564 547.665 552.498 552.565 547.598C557.465 542.698 563.298 540.248 570.065 540.248C577.298 540.248 583.365 542.698 588.265 547.598C593.165 552.498 595.615 558.564 595.615 565.798C595.615 572.564 593.165 578.398 588.265 583.298C583.365 588.198 577.298 590.648 570.065 590.648C563.298 590.648 557.465 588.198 552.565 583.298C547.665 578.398 545.215 572.564 545.215 565.798Z" fill="#6974DB"/>
<path d="M513.718 494.398L514.441 495.089L515.105 494.394L514.436 493.702L513.718 494.398ZM460.868 549.698L460.145 549.007L460.137 549.015L460.868 549.698ZM441.268 565.448L441.701 566.349L441.715 566.342L441.728 566.336L441.268 565.448ZM407.668 565.448L408.194 564.598L408.194 564.598L407.668 565.448ZM394.018 553.198L393.321 552.48L392.662 553.12L393.244 553.831L394.018 553.198ZM454.218 494.748L454.914 495.465L455.653 494.748L454.914 494.03L454.218 494.748ZM394.718 436.998L393.966 436.338L393.339 437.053L394.021 437.715L394.718 436.998ZM461.568 440.498L460.848 441.193L460.849 441.193L461.568 440.498ZM512.995 493.707L460.145 549.007L461.591 550.389L514.441 495.089L512.995 493.707ZM460.137 549.015C453.42 556.195 446.975 561.362 440.807 564.56L441.728 566.336C448.16 563 454.782 557.667 461.598 550.381L460.137 549.015ZM440.834 564.547C434.63 567.534 428.946 568.998 423.768 568.998V570.998C429.323 570.998 435.305 569.428 441.701 566.349L440.834 564.547ZM423.768 568.998C418.118 568.998 412.934 567.532 408.194 564.598L407.141 566.298C412.201 569.431 417.751 570.998 423.768 570.998V568.998ZM408.194 564.598C403.401 561.63 398.932 557.625 394.792 552.565L393.244 553.831C397.503 559.037 402.134 563.199 407.141 566.298L408.194 564.598ZM394.714 553.915L454.914 495.465L453.521 494.03L393.321 552.48L394.714 553.915ZM454.914 494.03L395.414 436.28L394.021 437.715L453.521 495.465L454.914 494.03ZM395.469 437.657C405.411 426.328 415.194 420.848 424.818 420.848V418.848C414.375 418.848 404.091 424.801 393.966 436.338L395.469 437.657ZM424.818 420.848C435.607 420.848 447.611 427.491 460.848 441.193L462.287 439.803C448.924 425.971 436.428 418.848 424.818 418.848V420.848ZM460.849 441.193L512.999 495.093L514.436 493.702L462.286 439.802L460.849 441.193ZM552.565 547.598L553.272 548.305L553.272 548.305L552.565 547.598ZM588.265 547.598L587.558 548.305L587.558 548.305L588.265 547.598ZM588.265 583.298L587.558 582.591L587.558 582.591L588.265 583.298ZM552.565 583.298L553.272 582.591L553.272 582.591L552.565 583.298ZM546.215 565.798C546.215 558.817 548.568 553.008 553.272 548.305L551.858 546.891C546.761 551.987 544.215 558.312 544.215 565.798H546.215ZM553.272 548.305C557.989 543.587 563.57 541.248 570.065 541.248V539.248C563.026 539.248 556.94 541.808 551.858 546.891L553.272 548.305ZM570.065 541.248C577.046 541.248 582.854 543.601 587.558 548.305L588.972 546.891C583.875 541.794 577.55 539.248 570.065 539.248V541.248ZM587.558 548.305C592.261 553.008 594.615 558.817 594.615 565.798H596.615C596.615 558.312 594.068 551.987 588.972 546.891L587.558 548.305ZM594.615 565.798C594.615 572.292 592.275 577.873 587.558 582.591L588.972 584.005C594.054 578.922 596.615 572.837 596.615 565.798H594.615ZM587.558 582.591C582.854 587.294 577.046 589.648 570.065 589.648V591.648C577.55 591.648 583.875 589.101 588.972 584.005L587.558 582.591ZM570.065 589.648C563.57 589.648 557.989 587.308 553.272 582.591L551.858 584.005C556.94 589.087 563.026 591.648 570.065 591.648V589.648ZM553.272 582.591C548.554 577.873 546.215 572.292 546.215 565.798H544.215C544.215 572.837 546.775 578.922 551.858 584.005L553.272 582.591Z" fill="black"/>
<path d="M982.707 500C982.707 228.498 771.44 16.9589 500.051 16.6994L500.051 0.500259C770.909 0.780874 999.051 229.05 999.051 500C999.051 770.95 770.908 999.219 500.051 999.5V983.301C768.577 983.034 978.117 767.529 982.707 500.009V500Z" fill="#6974DB" stroke="black"/>
<path d="M16.8441 500.248C16.8441 771.75 228.111 983.289 499.5 983.548L499.5 999.748C228.642 999.467 0.500031 771.198 0.500031 500.248C0.500031 229.298 228.642 1.02869 499.5 0.748047V16.947C230.974 17.2142 21.4341 232.719 16.8441 500.239V500.248Z" fill="#6974DB" stroke="black"/>
<path d="M114.604 1141.42L124.121 1128.21C130.831 1134.49 137.459 1137.7 144 1137.7C148.724 1137.7 152.749 1136.1 156.045 1132.91C159.477 1129.69 161.15 1124.88 161.15 1118.6V1067.45V1066.95H160.65H127.85V1052.05H177.85V1117.7C177.85 1128.5 175.367 1136.89 170.462 1142.93L169.8 1143.74H170.85H280.095H280.421L280.553 1143.45L320.817 1052.05H339.065L379.329 1143.45L379.461 1143.74H379.787H494.117H495.477L494.441 1142.86C490.33 1139.36 486.789 1135.19 483.822 1130.34C478.773 1121.93 476.244 1112.42 476.244 1101.8C476.244 1086.63 481.493 1074.17 491.985 1064.37L491.987 1064.36C502.491 1054.45 515.216 1049.5 530.194 1049.5C545.12 1049.5 557.485 1053.77 567.327 1062.28L558.448 1074.96C554.446 1071.62 550.38 1069.3 546.249 1068.02C542.086 1066.6 537.232 1065.9 531.694 1065.9C520.886 1065.9 511.814 1069.14 504.512 1075.63L504.509 1075.63C497.287 1082.14 493.694 1091.03 493.694 1102.25C493.694 1113.46 497.235 1122.55 504.346 1129.46L504.348 1129.46C511.444 1136.25 520.018 1139.65 530.044 1139.65C540.115 1139.65 548.565 1137.48 555.364 1133.12L555.594 1132.97V1132.7V1104.4H563.734L568.993 1109.75L568.995 1109.75L572.294 1113.07V1121.82V1139.56C571.264 1140.69 570.173 1141.76 569.018 1142.79L568.033 1143.66L569.35 1143.66L678.343 1143.74L678.843 1143.74V1143.24V1052.05H751.493V1067.7H696.043H695.543V1068.2V1095.95V1096.45H696.043H745.793V1111.2H696.043H695.543V1111.7V1139.75V1140.25H696.043H753.293V1143.24V1143.74H753.793H858.812H859.312V1143.24V1052.05H876.012V1139.6V1140.1H876.512H923.862V1143.24V1143.74H924.362H937.85V1155.9H367.02L330.459 1071.3L330.001 1070.24L329.541 1071.3L292.863 1155.9L132.85 1155.9H132.819L132.788 1155.9C130.749 1156.16 128.589 1155.42 126.456 1154.1C124.329 1152.77 122.282 1150.9 120.491 1148.97C118.703 1147.05 117.185 1145.09 116.113 1143.61C115.577 1142.87 115.154 1142.25 114.865 1141.81C114.76 1141.65 114.673 1141.52 114.604 1141.42Z" fill="#6974DB" stroke="black"/>
</svg>
